<svg id="visual" viewBox="0 0 540 960" width="540" height="960" xmlns="http://www.w3.org/2000/svg" xmlns:xlink="http://www.w3.org/1999/xlink" version="1.1"><g transform="translate(327.29937501989264 469.2862267101326)"><path d="M83.4 -120.7C127.2 -83 194.8 -84.2 201.1 -65.3C207.3 -46.4 152.2 -7.4 143.8 55.5C135.4 118.4 173.8 205.2 157.6 257.1C141.5 309 70.7 326 3.7 320.9C-63.3 315.8 -126.6 288.5 -190.8 252.2C-255 215.9 -320.1 170.5 -316 118C-311.9 65.5 -238.7 5.9 -212 -66.6C-185.4 -139.1 -205.2 -224.5 -177.7 -267.4C-150.1 -310.2 -75 -310.6 -27.6 -272.6C19.8 -234.6 39.7 -158.3 83.4 -120.7" fill="#3d1774"></path></g></svg>