<svg width="100" height="29" viewBox="0 0 100 29" fill="none" xmlns="http://www.w3.org/2000/svg">
<path d="M0.65083 22.5838V11.4546H14.546V10.8038H0.65083V0.65083H15.4247V0H0V23.2346H15.5548V22.5838H0.65083ZM28.0833 6.5083L22.3235 14.0905L16.6938 6.5083H15.8477L21.933 14.5786L15.262 23.2346H16.043L22.3235 15.0667L28.6365 23.2346H29.45L22.7465 14.5786L28.8643 6.5083H28.0833ZM31.4025 28.9619V18.5486H31.4676C31.8581 20.0673 32.6283 21.2876 33.7781 22.2096C34.9279 23.1316 36.3922 23.5926 38.1712 23.5926C39.321 23.5926 40.3406 23.3594 41.2301 22.8929C42.1195 22.4265 42.8626 21.792 43.4592 20.9893C44.0558 20.1866 44.5113 19.2537 44.8259 18.1907C45.1405 17.1277 45.2978 16.0104 45.2978 14.8389C45.2978 13.5806 45.135 12.42 44.8096 11.357C44.4842 10.294 44.0124 9.37195 43.3941 8.59095C42.7758 7.80995 42.0273 7.20252 41.1487 6.76863C40.2701 6.33474 39.2776 6.1178 38.1712 6.1178C37.3251 6.1178 36.5387 6.24254 35.8119 6.49203C35.0851 6.74151 34.4397 7.09404 33.8757 7.54963C33.3116 8.00521 32.8235 8.54214 32.4113 9.16043C31.9991 9.77872 31.6846 10.4567 31.4676 11.1943H31.4025V6.5083H30.7517V28.9619H31.4025ZM38.1712 22.9743C36.1319 22.9743 34.494 22.2747 33.2574 20.8754C32.0208 19.4761 31.4025 17.4639 31.4025 14.8389C31.4025 13.7542 31.5544 12.7237 31.8581 11.7475C32.1618 10.7712 32.6011 9.91431 33.176 9.1767C33.751 8.43909 34.4614 7.85335 35.3075 7.41946C36.1536 6.98557 37.1081 6.76863 38.1712 6.76863C39.2559 6.76863 40.205 6.98557 41.0185 7.41946C41.8321 7.85335 42.5046 8.44451 43.0361 9.19297C43.5676 9.94143 43.969 10.7983 44.2402 11.7637C44.5113 12.7291 44.6469 13.7542 44.6469 14.8389C44.6469 15.8152 44.5222 16.786 44.2727 17.7514C44.0232 18.7168 43.6381 19.5845 43.1175 20.3547C42.5968 21.1249 41.9297 21.754 41.1162 22.2421C40.3026 22.7302 39.321 22.9743 38.1712 22.9743ZM48.8773 23.2346V13.765C48.8773 12.8539 49.0075 11.9644 49.2678 11.0966C49.5281 10.2289 49.9295 9.46415 50.4719 8.80247C51.0142 8.14079 51.703 7.62013 52.5382 7.24048C53.3735 6.86083 54.366 6.70355 55.5158 6.76863V6.1178C54.5178 6.09611 53.6446 6.20458 52.8962 6.44321C52.1477 6.68185 51.5023 7.00726 50.96 7.41946C50.4176 7.83165 49.9837 8.31435 49.6583 8.86756C49.3329 9.42076 49.0943 10.0119 48.9424 10.6411H48.8773V6.5083H48.2265V23.2346H48.8773ZM56.3293 15.0016H70.3222C70.3656 13.8518 70.2517 12.7454 69.9805 11.6824C69.7093 10.6194 69.2754 9.67567 68.6788 8.85128C68.0822 8.0269 67.3121 7.36523 66.3684 6.86625C65.4247 6.36728 64.302 6.1178 63.0003 6.1178C62.0675 6.1178 61.1563 6.31305 60.2668 6.70355C59.3774 7.09405 58.5964 7.66352 57.9239 8.41197C57.2513 9.16043 56.709 10.077 56.2968 11.1617C55.8846 12.2465 55.6785 13.483 55.6785 14.8715C55.6785 16.108 55.8195 17.2633 56.1015 18.3371C56.3836 19.411 56.8174 20.3438 57.4032 21.1357C57.9889 21.9275 58.7428 22.5404 59.6648 22.9743C60.5868 23.4082 61.6987 23.6143 63.0003 23.5926C64.9094 23.5926 66.5148 23.0557 67.8165 21.9818C69.1181 20.9079 69.8883 19.3947 70.1269 17.4422H69.4761C69.1941 19.2863 68.4727 20.6693 67.3121 21.5913C66.1514 22.5133 64.6925 22.9743 62.9352 22.9743C61.7421 22.9743 60.7333 22.7682 59.9089 22.356C59.0845 21.9438 58.412 21.3798 57.8913 20.6638C57.3706 19.9479 56.9856 19.1073 56.7361 18.1419C56.4866 17.1765 56.351 16.1297 56.3293 15.0016ZM69.6713 14.3508H56.3293C56.3944 13.1793 56.6113 12.1271 56.9802 11.1943C57.349 10.2614 57.8316 9.46415 58.4282 8.80247C59.0248 8.14079 59.7191 7.6364 60.5109 7.28929C61.3028 6.94218 62.1542 6.76863 63.0654 6.76863C64.1501 6.76863 65.1047 6.9693 65.9291 7.37065C66.7534 7.77199 67.4422 8.31977 67.9954 9.01399C68.5487 9.70821 68.9663 10.5163 69.2483 11.4383C69.5303 12.3603 69.6713 13.3312 69.6713 14.3508ZM83.8269 11.4546H84.4777C84.4777 9.58888 83.9354 8.233 82.8506 7.38692C81.7659 6.54083 80.2907 6.1178 78.425 6.1178C77.3837 6.1178 76.505 6.24796 75.7891 6.5083C75.0732 6.76863 74.4875 7.10489 74.0319 7.51708C73.5763 7.92928 73.2509 8.38485 73.0556 8.88383C72.8604 9.3828 72.7628 9.86007 72.7628 10.3157C72.7628 11.2268 72.9255 11.9536 73.2509 12.4959C73.5763 13.0383 74.0861 13.4613 74.7803 13.765C75.2576 13.982 75.8 14.1772 76.4074 14.3508C77.0149 14.5244 77.7199 14.7088 78.5226 14.904C79.2385 15.0776 79.9436 15.2511 80.6378 15.4247C81.332 15.5982 81.9449 15.8314 82.4764 16.1243C83.0079 16.4172 83.4418 16.7914 83.7781 17.247C84.1143 17.7026 84.2825 18.2992 84.2825 19.0368C84.2825 19.7527 84.1143 20.3601 83.7781 20.8591C83.4418 21.3581 83.0133 21.7648 82.4927 22.0794C81.972 22.394 81.3917 22.6218 80.7517 22.7628C80.1117 22.9038 79.488 22.9743 78.8806 22.9743C76.9064 22.9743 75.3932 22.535 74.341 21.6564C73.2889 20.7777 72.7628 19.3947 72.7628 17.5073H72.1119C72.1119 19.6117 72.6814 21.152 73.8204 22.1282C74.9593 23.1045 76.646 23.5926 78.8806 23.5926C79.5965 23.5926 80.3178 23.5112 81.0446 23.3485C81.7713 23.1858 82.4222 22.9201 82.9971 22.5513C83.572 22.1824 84.0384 21.7052 84.3964 21.1194C84.7543 20.5337 84.9333 19.8178 84.9333 18.9717C84.9333 18.169 84.776 17.5182 84.4614 17.0192C84.1469 16.5202 83.7347 16.108 83.2249 15.7826C82.715 15.4572 82.1401 15.2023 81.5002 15.0179C80.8602 14.8335 80.2148 14.6545 79.5639 14.481C78.6528 14.2423 77.8555 14.0362 77.1721 13.8627C76.4888 13.6891 75.8542 13.483 75.2685 13.2444C74.7044 13.0057 74.2543 12.6641 73.918 12.2193C73.5817 11.7746 73.4136 11.14 73.4136 10.3157C73.4136 10.1638 73.457 9.89261 73.5438 9.50211C73.6305 9.11161 73.8366 8.7157 74.1621 8.31435C74.4875 7.913 74.9864 7.55505 75.659 7.24048C76.3315 6.92591 77.2535 6.76863 78.425 6.76863C79.2277 6.76863 79.9599 6.85541 80.6215 7.02896C81.2832 7.20252 81.8527 7.47912 82.33 7.85877C82.8072 8.23842 83.176 8.72112 83.4364 9.30687C83.6967 9.89261 83.8269 10.6085 83.8269 11.4546ZM98.8936 11.4546H99.5444C99.5444 9.58888 99.0021 8.233 97.9173 7.38692C96.8326 6.54083 95.3574 6.1178 93.4917 6.1178C92.4504 6.1178 91.5718 6.24796 90.8558 6.5083C90.1399 6.76863 89.5542 7.10489 89.0986 7.51708C88.643 7.92928 88.3176 8.38485 88.1224 8.88383C87.9271 9.3828 87.8295 9.86007 87.8295 10.3157C87.8295 11.2268 87.9922 11.9536 88.3176 12.4959C88.643 13.0383 89.1528 13.4613 89.8471 13.765C90.3243 13.982 90.8667 14.1772 91.4741 14.3508C92.0816 14.5244 92.7866 14.7088 93.5893 14.904C94.3052 15.0776 95.0103 15.2511 95.7045 15.4247C96.3987 15.5982 97.0116 15.8314 97.5431 16.1243C98.0746 16.4172 98.5085 16.7914 98.8448 17.247C99.181 17.7026 99.3492 18.2992 99.3492 19.0368C99.3492 19.7527 99.181 20.3601 98.8448 20.8591C98.5085 21.3581 98.0801 21.7648 97.5594 22.0794C97.0387 22.394 96.4584 22.6218 95.8184 22.7628C95.1784 22.9038 94.5547 22.9743 93.9473 22.9743C91.9731 22.9743 90.4599 22.535 89.4077 21.6564C88.3556 20.7777 87.8295 19.3947 87.8295 17.5073H87.1787C87.1787 19.6117 87.7481 21.152 88.8871 22.1282C90.026 23.1045 91.7128 23.5926 93.9473 23.5926C94.6632 23.5926 95.3845 23.5112 96.1113 23.3485C96.8381 23.1858 97.4889 22.9201 98.0638 22.5513C98.6387 22.1824 99.1051 21.7052 99.4631 21.1194C99.821 20.5337 100 19.8178 100 18.9717C100 18.169 99.8427 17.5182 99.5281 17.0192C99.2136 16.5202 98.8014 16.108 98.2916 15.7826C97.7818 15.4572 97.2069 15.2023 96.5669 15.0179C95.9269 14.8335 95.2815 14.6545 94.6307 14.481C93.7195 14.2423 92.9222 14.0362 92.2389 13.8627C91.5555 13.6891 90.9209 13.483 90.3352 13.2444C89.7711 13.0057 89.321 12.6641 88.9847 12.2193C88.6484 11.7746 88.4803 11.14 88.4803 10.3157C88.4803 10.1638 88.5237 9.89261 88.6105 9.50211C88.6973 9.11161 88.9034 8.7157 89.2288 8.31435C89.5542 7.913 90.0532 7.55505 90.7257 7.24048C91.3982 6.92591 92.3202 6.76863 93.4917 6.76863C94.2944 6.76863 95.0266 6.85541 95.6883 7.02896C96.3499 7.20252 96.9194 7.47912 97.3967 7.85877C97.874 8.23842 98.2428 8.72112 98.5031 9.30687C98.7634 9.89261 98.8936 10.6085 98.8936 11.4546Z" fill="white"/>
</svg>
