<svg width="37" height="31" viewBox="0 0 37 31" fill="none" xmlns="http://www.w3.org/2000/svg">
<path d="M36.0089 4.61702H0.991071C0.443752 4.61702 0 4.17403 0 3.62766V0.989362C0 0.442987 0.443752 0 0.991071 0H36.0089C36.5562 0 37 0.442987 37 0.989362V3.62766C37 4.17403 36.5562 4.61702 36.0089 4.61702ZM36.0089 17.8085H0.991071C0.443752 17.8085 0 17.3655 0 16.8191V14.1809C0 13.6345 0.443752 13.1915 0.991071 13.1915H36.0089C36.5562 13.1915 37 13.6345 37 14.1809V16.8191C37 17.3655 36.5562 17.8085 36.0089 17.8085ZM36.0089 31H0.991071C0.443752 31 0 30.557 0 30.0106V27.3723C0 26.826 0.443752 26.383 0.991071 26.383H36.0089C36.5562 26.383 37 26.826 37 27.3723V30.0106C37 30.557 36.5562 31 36.0089 31Z" fill="white"/>
</svg>
