<svg id="visual" viewBox="0 0 9999 9999" width="9999" height="9999" xmlns="http://www.w3.org/2000/svg" xmlns:xlink="http://www.w3.org/1999/xlink" version="1.1"><rect x="0" y="0" width="9999" height="9999" fill="#0C1D31"></rect><path d="M2891 0L2949.5 238C3008 476 3125 952 3183.3 1428.2C3241.7 1904.3 3241.3 2380.7 3239.5 2856.8C3237.7 3333 3234.3 3809 3208.3 4285.2C3182.3 4761.3 3133.7 5237.7 3170.7 5713.8C3207.7 6190 3330.3 6666 3448.5 7142.2C3566.7 7618.3 3680.3 8094.7 3668.5 8570.8C3656.7 9047 3519.3 9523 3450.7 9761L3382 9999L0 9999L0 9761C0 9523 0 9047 0 8570.8C0 8094.7 0 7618.3 0 7142.2C0 6666 0 6190 0 5713.8C0 5237.7 0 4761.3 0 4285.2C0 3809 0 3333 0 2856.8C0 2380.7 0 1904.3 0 1428.2C0 952 0 476 0 238L0 0Z" fill="#05203e"></path><path d="M2841 0L2698.8 238C2556.7 476 2272.3 952 2247.5 1428.2C2222.7 1904.3 2457.3 2380.7 2659.8 2856.8C2862.3 3333 3032.7 3809 3127.2 4285.2C3221.7 4761.3 3240.3 5237.7 3191.5 5713.8C3142.7 6190 3026.3 6666 2941.5 7142.2C2856.7 7618.3 2803.3 8094.7 2733.5 8570.8C2663.7 9047 2577.3 9523 2534.2 9761L2491 9999L0 9999L0 9761C0 9523 0 9047 0 8570.8C0 8094.7 0 7618.3 0 7142.2C0 6666 0 6190 0 5713.8C0 5237.7 0 4761.3 0 4285.2C0 3809 0 3333 0 2856.8C0 2380.7 0 1904.3 0 1428.2C0 952 0 476 0 238L0 0Z" fill="#01224f"></path><path d="M2050 0L2093.7 238C2137.3 476 2224.7 952 2325.5 1428.2C2426.3 1904.3 2540.7 2380.7 2555 2856.8C2569.3 3333 2483.7 3809 2439.8 4285.2C2396 4761.3 2394 5237.7 2293.5 5713.8C2193 6190 1994 6666 2045.2 7142.2C2096.3 7618.3 2397.7 8094.7 2420.3 8570.8C2443 9047 2187 9523 2059 9761L1931 9999L0 9999L0 9761C0 9523 0 9047 0 8570.8C0 8094.7 0 7618.3 0 7142.2C0 6666 0 6190 0 5713.8C0 5237.7 0 4761.3 0 4285.2C0 3809 0 3333 0 2856.8C0 2380.7 0 1904.3 0 1428.2C0 952 0 476 0 238L0 0Z" fill="#0e225e"></path><path d="M1398 0L1478.2 238C1558.3 476 1718.7 952 1653.5 1428.2C1588.3 1904.3 1297.7 2380.7 1175.7 2856.8C1053.7 3333 1100.3 3809 1125.8 4285.2C1151.3 4761.3 1155.7 5237.7 1124 5713.8C1092.3 6190 1024.7 6666 1094 7142.2C1163.3 7618.3 1369.7 8094.7 1403 8570.8C1436.3 9047 1296.7 9523 1226.8 9761L1157 9999L0 9999L0 9761C0 9523 0 9047 0 8570.8C0 8094.7 0 7618.3 0 7142.2C0 6666 0 6190 0 5713.8C0 5237.7 0 4761.3 0 4285.2C0 3809 0 3333 0 2856.8C0 2380.7 0 1904.3 0 1428.2C0 952 0 476 0 238L0 0Z" fill="#251f6b"></path><path d="M754 0L820.8 238C887.7 476 1021.3 952 1034.2 1428.2C1047 1904.3 939 2380.7 845.8 2856.8C752.7 3333 674.3 3809 645.8 4285.2C617.3 4761.3 638.7 5237.7 745.3 5713.8C852 6190 1044 6666 1096 7142.2C1148 7618.3 1060 8094.7 930.8 8570.8C801.7 9047 631.3 9523 546.2 9761L461 9999L0 9999L0 9761C0 9523 0 9047 0 8570.8C0 8094.7 0 7618.3 0 7142.2C0 6666 0 6190 0 5713.8C0 5237.7 0 4761.3 0 4285.2C0 3809 0 3333 0 2856.8C0 2380.7 0 1904.3 0 1428.2C0 952 0 476 0 238L0 0Z" fill="#3d1774"></path></svg>