<svg id="visual" viewBox="0 0 800 9999" width="800" height="9999" xmlns="http://www.w3.org/2000/svg" xmlns:xlink="http://www.w3.org/1999/xlink" version="1.1"><rect x="0" y="0" width="800" height="9999" fill="#0C1D31"></rect><path d="M137 0L152.2 72.5C167.3 145 197.7 290 208.2 434.8C218.7 579.7 209.3 724.3 207.3 869.2C205.3 1014 210.7 1159 222.5 1304C234.3 1449 252.7 1594 259.7 1739C266.7 1884 262.3 2029 260.7 2173.8C259 2318.7 260 2463.3 264.3 2608.2C268.7 2753 276.3 2898 253.3 3043C230.3 3188 176.7 3333 181.3 3478C186 3623 249 3768 263.3 3912.8C277.7 4057.7 243.3 4202.3 220.3 4347.2C197.3 4492 185.7 4637 203.8 4782C222 4927 270 5072 284.3 5217C298.7 5362 279.3 5507 249.7 5651.8C220 5796.7 180 5941.3 173.8 6086.2C167.7 6231 195.3 6376 215.3 6521C235.3 6666 247.7 6811 236 6956C224.3 7101 188.7 7246 193.8 7390.8C199 7535.7 245 7680.3 269.7 7825.2C294.3 7970 297.7 8115 301.5 8260C305.3 8405 309.7 8550 302.8 8695C296 8840 278 8985 277.8 9129.8C277.7 9274.7 295.3 9419.3 295.7 9564.2C296 9709 279 9854 270.5 9926.5L262 9999L0 9999L0 9926.5C0 9854 0 9709 0 9564.2C0 9419.3 0 9274.7 0 9129.8C0 8985 0 8840 0 8695C0 8550 0 8405 0 8260C0 8115 0 7970 0 7825.2C0 7680.3 0 7535.7 0 7390.8C0 7246 0 7101 0 6956C0 6811 0 6666 0 6521C0 6376 0 6231 0 6086.2C0 5941.3 0 5796.7 0 5651.8C0 5507 0 5362 0 5217C0 5072 0 4927 0 4782C0 4637 0 4492 0 4347.2C0 4202.3 0 4057.7 0 3912.8C0 3768 0 3623 0 3478C0 3333 0 3188 0 3043C0 2898 0 2753 0 2608.2C0 2463.3 0 2318.7 0 2173.8C0 2029 0 1884 0 1739C0 1594 0 1449 0 1304C0 1159 0 1014 0 869.2C0 724.3 0 579.7 0 434.8C0 290 0 145 0 72.5L0 0Z" fill="#05203e"></path><path d="M214 0L218 72.5C222 145 230 290 239.7 434.8C249.3 579.7 260.7 724.3 252.3 869.2C244 1014 216 1159 194 1304C172 1449 156 1594 144 1739C132 1884 124 2029 126.7 2173.8C129.3 2318.7 142.7 2463.3 148.7 2608.2C154.7 2753 153.3 2898 159 3043C164.7 3188 177.3 3333 179.7 3478C182 3623 174 3768 171 3912.8C168 4057.7 170 4202.3 163.5 4347.2C157 4492 142 4637 152.7 4782C163.3 4927 199.7 5072 205.2 5217C210.7 5362 185.3 5507 173.7 5651.8C162 5796.7 164 5941.3 182 6086.2C200 6231 234 6376 251.7 6521C269.3 6666 270.7 6811 254.3 6956C238 7101 204 7246 186.8 7390.8C169.7 7535.7 169.3 7680.3 171 7825.2C172.7 7970 176.3 8115 173.8 8260C171.3 8405 162.7 8550 173.2 8695C183.7 8840 213.3 8985 206.8 9129.8C200.3 9274.7 157.7 9419.3 150.5 9564.2C143.3 9709 171.7 9854 185.8 9926.5L200 9999L0 9999L0 9926.5C0 9854 0 9709 0 9564.2C0 9419.3 0 9274.7 0 9129.8C0 8985 0 8840 0 8695C0 8550 0 8405 0 8260C0 8115 0 7970 0 7825.2C0 7680.3 0 7535.7 0 7390.8C0 7246 0 7101 0 6956C0 6811 0 6666 0 6521C0 6376 0 6231 0 6086.2C0 5941.3 0 5796.7 0 5651.8C0 5507 0 5362 0 5217C0 5072 0 4927 0 4782C0 4637 0 4492 0 4347.2C0 4202.3 0 4057.7 0 3912.8C0 3768 0 3623 0 3478C0 3333 0 3188 0 3043C0 2898 0 2753 0 2608.2C0 2463.3 0 2318.7 0 2173.8C0 2029 0 1884 0 1739C0 1594 0 1449 0 1304C0 1159 0 1014 0 869.2C0 724.3 0 579.7 0 434.8C0 290 0 145 0 72.5L0 0Z" fill="#012149"></path><path d="M198 0L198.7 72.5C199.3 145 200.7 290 189 434.8C177.3 579.7 152.7 724.3 141.7 869.2C130.7 1014 133.3 1159 132.5 1304C131.7 1449 127.3 1594 121.5 1739C115.7 1884 108.3 2029 113.2 2173.8C118 2318.7 135 2463.3 155 2608.2C175 2753 198 2898 210.7 3043C223.3 3188 225.7 3333 208.3 3478C191 3623 154 3768 145.3 3912.8C136.7 4057.7 156.3 4202.3 156.3 4347.2C156.3 4492 136.7 4637 126.7 4782C116.7 4927 116.3 5072 124.3 5217C132.3 5362 148.7 5507 154 5651.8C159.3 5796.7 153.7 5941.3 163.7 6086.2C173.7 6231 199.3 6376 210.3 6521C221.3 6666 217.7 6811 213.7 6956C209.7 7101 205.3 7246 209.2 7390.8C213 7535.7 225 7680.3 213 7825.2C201 7970 165 8115 150.2 8260C135.3 8405 141.7 8550 150 8695C158.3 8840 168.7 8985 175.2 9129.8C181.7 9274.7 184.3 9419.3 189 9564.2C193.7 9709 200.3 9854 203.7 9926.5L207 9999L0 9999L0 9926.5C0 9854 0 9709 0 9564.2C0 9419.3 0 9274.7 0 9129.8C0 8985 0 8840 0 8695C0 8550 0 8405 0 8260C0 8115 0 7970 0 7825.2C0 7680.3 0 7535.7 0 7390.8C0 7246 0 7101 0 6956C0 6811 0 6666 0 6521C0 6376 0 6231 0 6086.2C0 5941.3 0 5796.7 0 5651.8C0 5507 0 5362 0 5217C0 5072 0 4927 0 4782C0 4637 0 4492 0 4347.2C0 4202.3 0 4057.7 0 3912.8C0 3768 0 3623 0 3478C0 3333 0 3188 0 3043C0 2898 0 2753 0 2608.2C0 2463.3 0 2318.7 0 2173.8C0 2029 0 1884 0 1739C0 1594 0 1449 0 1304C0 1159 0 1014 0 869.2C0 724.3 0 579.7 0 434.8C0 290 0 145 0 72.5L0 0Z" fill="#032254"></path><path d="M67 0L85 72.5C103 145 139 290 159.2 434.8C179.3 579.7 183.7 724.3 187.8 869.2C192 1014 196 1159 177.3 1304C158.7 1449 117.3 1594 115.5 1739C113.7 1884 151.3 2029 168.3 2173.8C185.3 2318.7 181.7 2463.3 162.3 2608.2C143 2753 108 2898 97.2 3043C86.3 3188 99.7 3333 107 3478C114.3 3623 115.7 3768 115.5 3912.8C115.3 4057.7 113.7 4202.3 126 4347.2C138.3 4492 164.7 4637 176.8 4782C189 4927 187 5072 170 5217C153 5362 121 5507 121.3 5651.8C121.7 5796.7 154.3 5941.3 167 6086.2C179.7 6231 172.3 6376 151.5 6521C130.7 6666 96.3 6811 92.8 6956C89.3 7101 116.7 7246 122.2 7390.8C127.7 7535.7 111.3 7680.3 115.7 7825.2C120 7970 145 8115 139.7 8260C134.3 8405 98.7 8550 94.3 8695C90 8840 117 8985 125.3 9129.8C133.7 9274.7 123.3 9419.3 119.2 9564.2C115 9709 117 9854 118 9926.5L119 9999L0 9999L0 9926.5C0 9854 0 9709 0 9564.2C0 9419.3 0 9274.7 0 9129.8C0 8985 0 8840 0 8695C0 8550 0 8405 0 8260C0 8115 0 7970 0 7825.2C0 7680.3 0 7535.7 0 7390.8C0 7246 0 7101 0 6956C0 6811 0 6666 0 6521C0 6376 0 6231 0 6086.2C0 5941.3 0 5796.7 0 5651.8C0 5507 0 5362 0 5217C0 5072 0 4927 0 4782C0 4637 0 4492 0 4347.2C0 4202.3 0 4057.7 0 3912.8C0 3768 0 3623 0 3478C0 3333 0 3188 0 3043C0 2898 0 2753 0 2608.2C0 2463.3 0 2318.7 0 2173.8C0 2029 0 1884 0 1739C0 1594 0 1449 0 1304C0 1159 0 1014 0 869.2C0 724.3 0 579.7 0 434.8C0 290 0 145 0 72.5L0 0Z" fill="#0e225e"></path><path d="M69 0L78.5 72.5C88 145 107 290 119.8 434.8C132.7 579.7 139.3 724.3 143 869.2C146.7 1014 147.3 1159 146.5 1304C145.7 1449 143.3 1594 126.7 1739C110 1884 79 2029 62.5 2173.8C46 2318.7 44 2463.3 45.3 2608.2C46.7 2753 51.3 2898 64.8 3043C78.3 3188 100.7 3333 110.5 3478C120.3 3623 117.7 3768 113.7 3912.8C109.7 4057.7 104.3 4202.3 96.2 4347.2C88 4492 77 4637 74.2 4782C71.3 4927 76.7 5072 79.2 5217C81.7 5362 81.3 5507 79.7 5651.8C78 5796.7 75 5941.3 81.8 6086.2C88.7 6231 105.3 6376 117.3 6521C129.3 6666 136.7 6811 139.8 6956C143 7101 142 7246 126 7390.8C110 7535.7 79 7680.3 70.7 7825.2C62.3 7970 76.7 8115 88.2 8260C99.7 8405 108.3 8550 107.3 8695C106.3 8840 95.7 8985 99.5 9129.8C103.3 9274.7 121.7 9419.3 122 9564.2C122.3 9709 104.7 9854 95.8 9926.5L87 9999L0 9999L0 9926.5C0 9854 0 9709 0 9564.2C0 9419.3 0 9274.7 0 9129.8C0 8985 0 8840 0 8695C0 8550 0 8405 0 8260C0 8115 0 7970 0 7825.2C0 7680.3 0 7535.7 0 7390.8C0 7246 0 7101 0 6956C0 6811 0 6666 0 6521C0 6376 0 6231 0 6086.2C0 5941.3 0 5796.7 0 5651.8C0 5507 0 5362 0 5217C0 5072 0 4927 0 4782C0 4637 0 4492 0 4347.2C0 4202.3 0 4057.7 0 3912.8C0 3768 0 3623 0 3478C0 3333 0 3188 0 3043C0 2898 0 2753 0 2608.2C0 2463.3 0 2318.7 0 2173.8C0 2029 0 1884 0 1739C0 1594 0 1449 0 1304C0 1159 0 1014 0 869.2C0 724.3 0 579.7 0 434.8C0 290 0 145 0 72.5L0 0Z" fill="#1d2167"></path><path d="M94 0L82.7 72.5C71.3 145 48.7 290 48.2 434.8C47.7 579.7 69.3 724.3 75.5 869.2C81.7 1014 72.3 1159 65.7 1304C59 1449 55 1594 58.7 1739C62.3 1884 73.7 2029 69.7 2173.8C65.7 2318.7 46.3 2463.3 45.7 2608.2C45 2753 63 2898 67.2 3043C71.3 3188 61.7 3333 52.3 3478C43 3623 34 3768 38 3912.8C42 4057.7 59 4202.3 64.8 4347.2C70.7 4492 65.3 4637 61 4782C56.7 4927 53.3 5072 56 5217C58.7 5362 67.3 5507 75.5 5651.8C83.7 5796.7 91.3 5941.3 91.3 6086.2C91.3 6231 83.7 6376 77.8 6521C72 6666 68 6811 72.3 6956C76.7 7101 89.3 7246 86.5 7390.8C83.7 7535.7 65.3 7680.3 62.2 7825.2C59 7970 71 8115 79.5 8260C88 8405 93 8550 87.8 8695C82.7 8840 67.3 8985 61 9129.8C54.7 9274.7 57.3 9419.3 58.5 9564.2C59.7 9709 59.3 9854 59.2 9926.5L59 9999L0 9999L0 9926.5C0 9854 0 9709 0 9564.2C0 9419.3 0 9274.7 0 9129.8C0 8985 0 8840 0 8695C0 8550 0 8405 0 8260C0 8115 0 7970 0 7825.2C0 7680.3 0 7535.7 0 7390.8C0 7246 0 7101 0 6956C0 6811 0 6666 0 6521C0 6376 0 6231 0 6086.2C0 5941.3 0 5796.7 0 5651.8C0 5507 0 5362 0 5217C0 5072 0 4927 0 4782C0 4637 0 4492 0 4347.2C0 4202.3 0 4057.7 0 3912.8C0 3768 0 3623 0 3478C0 3333 0 3188 0 3043C0 2898 0 2753 0 2608.2C0 2463.3 0 2318.7 0 2173.8C0 2029 0 1884 0 1739C0 1594 0 1449 0 1304C0 1159 0 1014 0 869.2C0 724.3 0 579.7 0 434.8C0 290 0 145 0 72.5L0 0Z" fill="#2d1d6e"></path><path d="M9 0L10 72.5C11 145 13 290 19.5 434.8C26 579.7 37 724.3 46.2 869.2C55.3 1014 62.7 1159 62.5 1304C62.3 1449 54.7 1594 50.7 1739C46.7 1884 46.3 2029 51.2 2173.8C56 2318.7 66 2463.3 58.8 2608.2C51.7 2753 27.3 2898 27.2 3043C27 3188 51 3333 51.8 3478C52.7 3623 30.3 3768 29.7 3912.8C29 4057.7 50 4202.3 49.8 4347.2C49.7 4492 28.3 4637 20.2 4782C12 4927 17 5072 23.7 5217C30.3 5362 38.7 5507 40.3 5651.8C42 5796.7 37 5941.3 39.8 6086.2C42.7 6231 53.3 6376 61.2 6521C69 6666 74 6811 68 6956C62 7101 45 7246 36.7 7390.8C28.3 7535.7 28.7 7680.3 27.2 7825.2C25.7 7970 22.3 8115 24 8260C25.7 8405 32.3 8550 31 8695C29.7 8840 20.3 8985 23.3 9129.8C26.3 9274.7 41.7 9419.3 48.8 9564.2C56 9709 55 9854 54.5 9926.5L54 9999L0 9999L0 9926.5C0 9854 0 9709 0 9564.2C0 9419.3 0 9274.7 0 9129.8C0 8985 0 8840 0 8695C0 8550 0 8405 0 8260C0 8115 0 7970 0 7825.2C0 7680.3 0 7535.7 0 7390.8C0 7246 0 7101 0 6956C0 6811 0 6666 0 6521C0 6376 0 6231 0 6086.2C0 5941.3 0 5796.7 0 5651.8C0 5507 0 5362 0 5217C0 5072 0 4927 0 4782C0 4637 0 4492 0 4347.2C0 4202.3 0 4057.7 0 3912.8C0 3768 0 3623 0 3478C0 3333 0 3188 0 3043C0 2898 0 2753 0 2608.2C0 2463.3 0 2318.7 0 2173.8C0 2029 0 1884 0 1739C0 1594 0 1449 0 1304C0 1159 0 1014 0 869.2C0 724.3 0 579.7 0 434.8C0 290 0 145 0 72.5L0 0Z" fill="#3d1774"></path></svg>