<svg id="visual" viewBox="0 0 3840 9999" width="3840" height="9999" xmlns="http://www.w3.org/2000/svg" xmlns:xlink="http://www.w3.org/1999/xlink" version="1.1"><rect x="0" y="0" width="3840" height="9999" fill="#0C1D31"></rect><path d="M1111 0L1133.5 238C1156 476 1201 952 1223.3 1428.2C1245.7 1904.3 1245.3 2380.7 1244.5 2856.8C1243.7 3333 1242.3 3809 1232.3 4285.2C1222.3 4761.3 1203.7 5237.7 1218 5713.8C1232.3 6190 1279.7 6666 1325.2 7142.2C1370.7 7618.3 1414.3 8094.7 1409.7 8570.8C1405 9047 1352 9523 1325.5 9761L1299 9999L0 9999L0 9761C0 9523 0 9047 0 8570.8C0 8094.7 0 7618.3 0 7142.2C0 6666 0 6190 0 5713.8C0 5237.7 0 4761.3 0 4285.2C0 3809 0 3333 0 2856.8C0 2380.7 0 1904.3 0 1428.2C0 952 0 476 0 238L0 0Z" fill="#05203e"></path><path d="M1092 0L1037.3 238C982.7 476 873.3 952 863.8 1428.2C854.3 1904.3 944.7 2380.7 1022.5 2856.8C1100.3 3333 1165.7 3809 1201.8 4285.2C1238 4761.3 1245 5237.7 1226.2 5713.8C1207.3 6190 1162.7 6666 1130.2 7142.2C1097.7 7618.3 1077.3 8094.7 1050.5 8570.8C1023.7 9047 990.3 9523 973.7 9761L957 9999L0 9999L0 9761C0 9523 0 9047 0 8570.8C0 8094.7 0 7618.3 0 7142.2C0 6666 0 6190 0 5713.8C0 5237.7 0 4761.3 0 4285.2C0 3809 0 3333 0 2856.8C0 2380.7 0 1904.3 0 1428.2C0 952 0 476 0 238L0 0Z" fill="#01224f"></path><path d="M788 0L804.8 238C821.7 476 855.3 952 894 1428.2C932.7 1904.3 976.3 2380.7 981.8 2856.8C987.3 3333 954.7 3809 937.8 4285.2C921 4761.3 920 5237.7 881.3 5713.8C842.7 6190 766.3 6666 786 7142.2C805.7 7618.3 921.3 8094.7 930 8570.8C938.7 9047 840.3 9523 791.2 9761L742 9999L0 9999L0 9761C0 9523 0 9047 0 8570.8C0 8094.7 0 7618.3 0 7142.2C0 6666 0 6190 0 5713.8C0 5237.7 0 4761.3 0 4285.2C0 3809 0 3333 0 2856.8C0 2380.7 0 1904.3 0 1428.2C0 952 0 476 0 238L0 0Z" fill="#0e225e"></path><path d="M538 0L568.7 238C599.3 476 660.7 952 635.5 1428.2C610.3 1904.3 498.7 2380.7 451.8 2856.8C405 3333 423 3809 432.8 4285.2C442.7 4761.3 444.3 5237.7 432.2 5713.8C420 6190 394 6666 420.7 7142.2C447.3 7618.3 526.7 8094.7 539.5 8570.8C552.3 9047 498.7 9523 471.8 9761L445 9999L0 9999L0 9761C0 9523 0 9047 0 8570.8C0 8094.7 0 7618.3 0 7142.2C0 6666 0 6190 0 5713.8C0 5237.7 0 4761.3 0 4285.2C0 3809 0 3333 0 2856.8C0 2380.7 0 1904.3 0 1428.2C0 952 0 476 0 238L0 0Z" fill="#251f6b"></path><path d="M290 0L315.7 238C341.3 476 392.7 952 397.7 1428.2C402.7 1904.3 361.3 2380.7 325.7 2856.8C290 3333 260 3809 249 4285.2C238 4761.3 246 5237.7 286.8 5713.8C327.7 6190 401.3 6666 421.3 7142.2C441.3 7618.3 407.7 8094.7 358.2 8570.8C308.7 9047 243.3 9523 210.7 9761L178 9999L0 9999L0 9761C0 9523 0 9047 0 8570.8C0 8094.7 0 7618.3 0 7142.2C0 6666 0 6190 0 5713.8C0 5237.7 0 4761.3 0 4285.2C0 3809 0 3333 0 2856.8C0 2380.7 0 1904.3 0 1428.2C0 952 0 476 0 238L0 0Z" fill="#3d1774"></path></svg>