<svg id="visual" viewBox="0 0 1920 9999" width="1920" height="9999" xmlns="http://www.w3.org/2000/svg" xmlns:xlink="http://www.w3.org/1999/xlink" version="1.1"><rect x="0" y="0" width="1920" height="9999" fill="#0C1D31"></rect><path d="M629 0L647 72.5C665 145 701 290 708.3 434.8C715.7 579.7 694.3 724.3 755.2 869.2C816 1014 959 1159 960.5 1304C962 1449 822 1594 808.7 1739C795.3 1884 908.7 2029 903.2 2173.8C897.7 2318.7 773.3 2463.3 743.2 2608.2C713 2753 777 2898 856.7 3043C936.3 3188 1031.7 3333 987 3478C942.3 3623 757.7 3768 763.3 3912.8C769 4057.7 965 4202.3 993.3 4347.2C1021.7 4492 882.3 4637 827.2 4782C772 4927 801 5072 773.8 5217C746.7 5362 663.3 5507 633.7 5651.8C604 5796.7 628 5941.3 693 6086.2C758 6231 864 6376 859.2 6521C854.3 6666 738.7 6811 752 6956C765.3 7101 907.7 7246 988 7390.8C1068.3 7535.7 1086.7 7680.3 1071 7825.2C1055.3 7970 1005.7 8115 976 8260C946.3 8405 936.7 8550 927.7 8695C918.7 8840 910.3 8985 915 9129.8C919.7 9274.7 937.3 9419.3 921.5 9564.2C905.7 9709 856.3 9854 831.7 9926.5L807 9999L0 9999L0 9926.5C0 9854 0 9709 0 9564.2C0 9419.3 0 9274.7 0 9129.8C0 8985 0 8840 0 8695C0 8550 0 8405 0 8260C0 8115 0 7970 0 7825.2C0 7680.3 0 7535.7 0 7390.8C0 7246 0 7101 0 6956C0 6811 0 6666 0 6521C0 6376 0 6231 0 6086.2C0 5941.3 0 5796.7 0 5651.8C0 5507 0 5362 0 5217C0 5072 0 4927 0 4782C0 4637 0 4492 0 4347.2C0 4202.3 0 4057.7 0 3912.8C0 3768 0 3623 0 3478C0 3333 0 3188 0 3043C0 2898 0 2753 0 2608.2C0 2463.3 0 2318.7 0 2173.8C0 2029 0 1884 0 1739C0 1594 0 1449 0 1304C0 1159 0 1014 0 869.2C0 724.3 0 579.7 0 434.8C0 290 0 145 0 72.5L0 0Z" fill="#0c1d31"></path><path d="M957 0L895.3 72.5C833.7 145 710.3 290 711 434.8C711.7 579.7 836.3 724.3 884.5 869.2C932.7 1014 904.3 1159 882.5 1304C860.7 1449 845.3 1594 860.8 1739C876.3 1884 922.7 2029 901.7 2173.8C880.7 2318.7 792.3 2463.3 741.8 2608.2C691.3 2753 678.7 2898 712.7 3043C746.7 3188 827.3 3333 866.7 3478C906 3623 904 3768 902.8 3912.8C901.7 4057.7 901.3 4202.3 848.3 4347.2C795.3 4492 689.7 4637 674 4782C658.3 4927 732.7 5072 804.3 5217C876 5362 945 5507 882.2 5651.8C819.3 5796.7 624.7 5941.3 560.7 6086.2C496.7 6231 563.3 6376 604.5 6521C645.7 6666 661.3 6811 718.3 6956C775.3 7101 873.7 7246 846.3 7390.8C819 7535.7 666 7680.3 637 7825.2C608 7970 703 8115 706 8260C709 8405 620 8550 568.3 8695C516.7 8840 502.3 8985 561.5 9129.8C620.7 9274.7 753.3 9419.3 807 9564.2C860.7 9709 835.3 9854 822.7 9926.5L810 9999L0 9999L0 9926.5C0 9854 0 9709 0 9564.2C0 9419.3 0 9274.7 0 9129.8C0 8985 0 8840 0 8695C0 8550 0 8405 0 8260C0 8115 0 7970 0 7825.2C0 7680.3 0 7535.7 0 7390.8C0 7246 0 7101 0 6956C0 6811 0 6666 0 6521C0 6376 0 6231 0 6086.2C0 5941.3 0 5796.7 0 5651.8C0 5507 0 5362 0 5217C0 5072 0 4927 0 4782C0 4637 0 4492 0 4347.2C0 4202.3 0 4057.7 0 3912.8C0 3768 0 3623 0 3478C0 3333 0 3188 0 3043C0 2898 0 2753 0 2608.2C0 2463.3 0 2318.7 0 2173.8C0 2029 0 1884 0 1739C0 1594 0 1449 0 1304C0 1159 0 1014 0 869.2C0 724.3 0 579.7 0 434.8C0 290 0 145 0 72.5L0 0Z" fill="#05203e"></path><path d="M551 0L548.8 72.5C546.7 145 542.3 290 512 434.8C481.7 579.7 425.3 724.3 442.5 869.2C459.7 1014 550.3 1159 614.5 1304C678.7 1449 716.3 1594 714.3 1739C712.3 1884 670.7 2029 670.2 2173.8C669.7 2318.7 710.3 2463.3 683 2608.2C655.7 2753 560.3 2898 548.8 3043C537.3 3188 609.7 3333 598 3478C586.3 3623 490.7 3768 457.8 3912.8C425 4057.7 455 4202.3 521.7 4347.2C588.3 4492 691.7 4637 741 4782C790.3 4927 785.7 5072 727.7 5217C669.7 5362 558.3 5507 533 5651.8C507.7 5796.7 568.3 5941.3 560 6086.2C551.7 6231 474.3 6376 434.2 6521C394 6666 391 6811 412 6956C433 7101 478 7246 507.2 7390.8C536.3 7535.7 549.7 7680.3 553.7 7825.2C557.7 7970 552.3 8115 520.7 8260C489 8405 431 8550 483.5 8695C536 8840 699 8985 705 9129.8C711 9274.7 560 9419.3 527.8 9564.2C495.7 9709 582.3 9854 625.7 9926.5L669 9999L0 9999L0 9926.5C0 9854 0 9709 0 9564.2C0 9419.3 0 9274.7 0 9129.8C0 8985 0 8840 0 8695C0 8550 0 8405 0 8260C0 8115 0 7970 0 7825.2C0 7680.3 0 7535.7 0 7390.8C0 7246 0 7101 0 6956C0 6811 0 6666 0 6521C0 6376 0 6231 0 6086.2C0 5941.3 0 5796.7 0 5651.8C0 5507 0 5362 0 5217C0 5072 0 4927 0 4782C0 4637 0 4492 0 4347.2C0 4202.3 0 4057.7 0 3912.8C0 3768 0 3623 0 3478C0 3333 0 3188 0 3043C0 2898 0 2753 0 2608.2C0 2463.3 0 2318.7 0 2173.8C0 2029 0 1884 0 1739C0 1594 0 1449 0 1304C0 1159 0 1014 0 869.2C0 724.3 0 579.7 0 434.8C0 290 0 145 0 72.5L0 0Z" fill="#03214c"></path><path d="M398 0L432 72.5C466 145 534 290 518.3 434.8C502.7 579.7 403.3 724.3 386.7 869.2C370 1014 436 1159 428.2 1304C420.3 1449 338.7 1594 374 1739C409.3 1884 561.7 2029 588.5 2173.8C615.3 2318.7 516.7 2463.3 484.5 2608.2C452.3 2753 486.7 2898 538.7 3043C590.7 3188 660.3 3333 654.5 3478C648.7 3623 567.3 3768 505.8 3912.8C444.3 4057.7 402.7 4202.3 396.8 4347.2C391 4492 421 4637 414.2 4782C407.3 4927 363.7 5072 332.8 5217C302 5362 284 5507 334.8 5651.8C385.7 5796.7 505.3 5941.3 562.3 6086.2C619.3 6231 613.7 6376 592.7 6521C571.7 6666 535.3 6811 519.3 6956C503.3 7101 507.7 7246 496.3 7390.8C485 7535.7 458 7680.3 491 7825.2C524 7970 617 8115 657.5 8260C698 8405 686 8550 616 8695C546 8840 418 8985 414 9129.8C410 9274.7 530 9419.3 601 9564.2C672 9709 694 9854 705 9926.5L716 9999L0 9999L0 9926.5C0 9854 0 9709 0 9564.2C0 9419.3 0 9274.7 0 9129.8C0 8985 0 8840 0 8695C0 8550 0 8405 0 8260C0 8115 0 7970 0 7825.2C0 7680.3 0 7535.7 0 7390.8C0 7246 0 7101 0 6956C0 6811 0 6666 0 6521C0 6376 0 6231 0 6086.2C0 5941.3 0 5796.7 0 5651.8C0 5507 0 5362 0 5217C0 5072 0 4927 0 4782C0 4637 0 4492 0 4347.2C0 4202.3 0 4057.7 0 3912.8C0 3768 0 3623 0 3478C0 3333 0 3188 0 3043C0 2898 0 2753 0 2608.2C0 2463.3 0 2318.7 0 2173.8C0 2029 0 1884 0 1739C0 1594 0 1449 0 1304C0 1159 0 1014 0 869.2C0 724.3 0 579.7 0 434.8C0 290 0 145 0 72.5L0 0Z" fill="#092258"></path><path d="M555 0L523.2 72.5C491.3 145 427.7 290 386.2 434.8C344.7 579.7 325.3 724.3 299 869.2C272.7 1014 239.3 1159 222.2 1304C205 1449 204 1594 251.5 1739C299 1884 395 2029 444 2173.8C493 2318.7 495 2463.3 475.7 2608.2C456.3 2753 415.7 2898 384 3043C352.3 3188 329.7 3333 340 3478C350.3 3623 393.7 3768 439.8 3912.8C486 4057.7 535 4202.3 496.2 4347.2C457.3 4492 330.7 4637 315 4782C299.3 4927 394.7 5072 433.5 5217C472.3 5362 454.7 5507 428.8 5651.8C403 5796.7 369 5941.3 377.7 6086.2C386.3 6231 437.7 6376 446.8 6521C456 6666 423 6811 379 6956C335 7101 280 7246 286.7 7390.8C293.3 7535.7 361.7 7680.3 393.7 7825.2C425.7 7970 421.3 8115 411.7 8260C402 8405 387 8550 401.3 8695C415.7 8840 459.3 8985 482.2 9129.8C505 9274.7 507 9419.3 490 9564.2C473 9709 437 9854 419 9926.5L401 9999L0 9999L0 9926.5C0 9854 0 9709 0 9564.2C0 9419.3 0 9274.7 0 9129.8C0 8985 0 8840 0 8695C0 8550 0 8405 0 8260C0 8115 0 7970 0 7825.2C0 7680.3 0 7535.7 0 7390.8C0 7246 0 7101 0 6956C0 6811 0 6666 0 6521C0 6376 0 6231 0 6086.2C0 5941.3 0 5796.7 0 5651.8C0 5507 0 5362 0 5217C0 5072 0 4927 0 4782C0 4637 0 4492 0 4347.2C0 4202.3 0 4057.7 0 3912.8C0 3768 0 3623 0 3478C0 3333 0 3188 0 3043C0 2898 0 2753 0 2608.2C0 2463.3 0 2318.7 0 2173.8C0 2029 0 1884 0 1739C0 1594 0 1449 0 1304C0 1159 0 1014 0 869.2C0 724.3 0 579.7 0 434.8C0 290 0 145 0 72.5L0 0Z" fill="#182163"></path><path d="M287 0L262.8 72.5C238.7 145 190.3 290 184.2 434.8C178 579.7 214 724.3 261.2 869.2C308.3 1014 366.7 1159 379.8 1304C393 1449 361 1594 346.3 1739C331.7 1884 334.3 2029 339 2173.8C343.7 2318.7 350.3 2463.3 340.3 2608.2C330.3 2753 303.7 2898 293.2 3043C282.7 3188 288.3 3333 304.2 3478C320 3623 346 3768 317.7 3912.8C289.3 4057.7 206.7 4202.3 208.2 4347.2C209.7 4492 295.3 4637 295.2 4782C295 4927 209 5072 174.8 5217C140.7 5362 158.3 5507 208.8 5651.8C259.3 5796.7 342.7 5941.3 345.7 6086.2C348.7 6231 271.3 6376 244.8 6521C218.3 6666 242.7 6811 252.3 6956C262 7101 257 7246 243.5 7390.8C230 7535.7 208 7680.3 208.3 7825.2C208.7 7970 231.3 8115 222.2 8260C213 8405 172 8550 176.8 8695C181.7 8840 232.3 8985 240.2 9129.8C248 9274.7 213 9419.3 230 9564.2C247 9709 316 9854 350.5 9926.5L385 9999L0 9999L0 9926.5C0 9854 0 9709 0 9564.2C0 9419.3 0 9274.7 0 9129.8C0 8985 0 8840 0 8695C0 8550 0 8405 0 8260C0 8115 0 7970 0 7825.2C0 7680.3 0 7535.7 0 7390.8C0 7246 0 7101 0 6956C0 6811 0 6666 0 6521C0 6376 0 6231 0 6086.2C0 5941.3 0 5796.7 0 5651.8C0 5507 0 5362 0 5217C0 5072 0 4927 0 4782C0 4637 0 4492 0 4347.2C0 4202.3 0 4057.7 0 3912.8C0 3768 0 3623 0 3478C0 3333 0 3188 0 3043C0 2898 0 2753 0 2608.2C0 2463.3 0 2318.7 0 2173.8C0 2029 0 1884 0 1739C0 1594 0 1449 0 1304C0 1159 0 1014 0 869.2C0 724.3 0 579.7 0 434.8C0 290 0 145 0 72.5L0 0Z" fill="#2a1e6d"></path><path d="M173 0L154 72.5C135 145 97 290 78.7 434.8C60.3 579.7 61.7 724.3 89.8 869.2C118 1014 173 1159 206.3 1304C239.7 1449 251.3 1594 238.7 1739C226 1884 189 2029 189.8 2173.8C190.7 2318.7 229.3 2463.3 233.8 2608.2C238.3 2753 208.7 2898 182.5 3043C156.3 3188 133.7 3333 138.3 3478C143 3623 175 3768 196.2 3912.8C217.3 4057.7 227.7 4202.3 225 4347.2C222.3 4492 206.7 4637 181.5 4782C156.3 4927 121.7 5072 114.8 5217C108 5362 129 5507 127.3 5651.8C125.7 5796.7 101.3 5941.3 86.7 6086.2C72 6231 67 6376 81 6521C95 6666 128 6811 137.5 6956C147 7101 133 7246 135.2 7390.8C137.3 7535.7 155.7 7680.3 172.2 7825.2C188.7 7970 203.3 8115 186 8260C168.7 8405 119.3 8550 94.2 8695C69 8840 68 8985 87.8 9129.8C107.7 9274.7 148.3 9419.3 147.8 9564.2C147.3 9709 105.7 9854 84.8 9926.5L64 9999L0 9999L0 9926.5C0 9854 0 9709 0 9564.2C0 9419.3 0 9274.7 0 9129.8C0 8985 0 8840 0 8695C0 8550 0 8405 0 8260C0 8115 0 7970 0 7825.2C0 7680.3 0 7535.7 0 7390.8C0 7246 0 7101 0 6956C0 6811 0 6666 0 6521C0 6376 0 6231 0 6086.2C0 5941.3 0 5796.7 0 5651.8C0 5507 0 5362 0 5217C0 5072 0 4927 0 4782C0 4637 0 4492 0 4347.2C0 4202.3 0 4057.7 0 3912.8C0 3768 0 3623 0 3478C0 3333 0 3188 0 3043C0 2898 0 2753 0 2608.2C0 2463.3 0 2318.7 0 2173.8C0 2029 0 1884 0 1739C0 1594 0 1449 0 1304C0 1159 0 1014 0 869.2C0 724.3 0 579.7 0 434.8C0 290 0 145 0 72.5L0 0Z" fill="#3d1774"></path></svg>