<svg width="100" height="29" viewBox="0 0 100 29" fill="none" xmlns="http://www.w3.org/2000/svg">
<path fill-rule="evenodd" clip-rule="evenodd" d="M93.2151 11.7829C93.125 11.801 93.0348 11.9995 93.0348 12.1077C93.0168 12.8295 92.9987 14.7423 92.9987 16.0414C92.9987 16.0775 93.0527 16.1496 93.1069 16.1496C93.3776 16.1677 94.0272 16.1858 94.5865 16.1858C95.3625 16.1858 95.8136 16.0775 96.0663 15.9693C96.7158 15.6445 97.0226 14.9407 97.0226 14.1647C97.0226 12.4145 95.7955 11.7468 93.973 11.7468C93.8467 11.7289 93.4859 11.7289 93.2151 11.7829ZM97.8707 19.8488C97.8707 18.0625 96.5534 17.0699 94.1716 17.0699C94.0633 17.0699 93.3055 17.0519 93.125 17.088C93.0708 17.106 92.9987 17.1422 92.9987 17.1964C92.9987 18.4774 92.9806 20.5165 93.0348 21.3104C93.0708 21.6533 93.3235 22.1405 93.6303 22.2849C93.9549 22.4653 94.6949 22.5013 95.2 22.5013C96.6256 22.5013 97.8707 21.7075 97.8707 19.8488ZM89.5342 10.7905C89.7145 10.7905 90.2559 10.8446 91.6454 10.8446C92.9626 10.8446 94.0091 10.8086 95.2904 10.8086C96.8601 10.8086 99.0255 11.3679 99.0255 13.7136C99.0255 14.8686 98.2135 15.7889 97.1488 16.24C97.0948 16.258 97.0948 16.294 97.1488 16.3121C98.6646 16.6911 100 17.6294 100 19.3977C100 21.1301 98.9173 22.2307 97.3474 22.9164C96.391 23.3314 95.2001 23.4758 93.9911 23.4758C93.0708 23.4758 90.5988 23.3675 89.2274 23.4037C89.0831 23.3495 89.3537 22.6998 89.48 22.5916C89.8048 22.5735 90.0574 22.5555 90.4003 22.4473C90.8875 22.321 90.9415 22.1766 91.0138 21.4368C91.0499 20.8052 91.0499 18.5676 91.0499 16.9798C91.0499 14.7963 91.068 13.3167 91.0499 12.595C91.0319 12.0356 90.8333 11.8552 90.4364 11.7468C90.1296 11.6927 89.6243 11.6205 89.2094 11.5665C89.119 11.4761 89.4258 10.8626 89.5342 10.7905ZM79.1224 22.0142C79.5556 22.3569 80.4036 22.5013 81.1615 22.5013C82.136 22.5013 83.1103 22.321 84.0486 21.4728C85.005 20.6067 85.6726 19.2714 85.6726 17.1422C85.6726 15.1031 84.8966 13.443 83.3088 12.4687C82.4066 11.9092 81.2516 11.6747 79.9164 11.6747C79.5195 11.6747 79.1405 11.6927 78.9059 11.801C78.8518 11.8371 78.7255 11.9995 78.7255 12.0897C78.6893 12.4506 78.6893 15.2294 78.6893 16.8535C78.6893 18.5316 78.6893 20.8773 78.7255 21.148C78.7255 21.4188 78.8518 21.8337 79.1224 22.0142ZM75.0263 10.7905C75.3692 10.7905 76.6864 10.8446 77.3179 10.8446C78.4548 10.8446 79.2667 10.7905 81.4141 10.7905C83.2185 10.7905 84.7342 11.2778 85.8169 12.1979C87.1341 13.3348 87.8199 14.9047 87.8199 16.8174C87.8199 19.5421 86.5748 21.112 85.3297 22.0142C84.0847 22.9345 82.4606 23.4758 80.1511 23.4758C78.924 23.4758 76.8128 23.4396 75.0624 23.4216H75.0443C74.9542 23.2593 75.1887 22.6277 75.333 22.6097C75.8022 22.5555 75.9285 22.5374 76.1632 22.4473C76.542 22.3029 76.6143 22.1044 76.6685 21.4368C76.7225 20.1917 76.7044 18.694 76.7044 16.9978C76.7044 15.7889 76.7225 13.4249 76.6864 12.6671C76.6323 12.0356 76.3617 11.8732 75.8203 11.7648C75.5496 11.7108 75.1887 11.6386 74.6836 11.5845C74.6113 11.4581 74.9361 10.8987 75.0263 10.7905Z" fill="#8E714E"/>
<path fill-rule="evenodd" clip-rule="evenodd" d="M53.1926 22.7179C52.7415 22.6637 52.4167 22.5916 52.0196 22.4112C51.9656 22.375 51.8752 22.1947 51.8752 22.1225C51.8391 21.4909 51.8391 19.6864 51.8391 18.4775C51.8391 17.503 51.6769 16.655 51.2617 16.0595C50.7745 15.3737 50.0708 14.9768 49.1686 14.9768C48.3746 14.9768 47.31 15.5182 46.4258 16.2761C46.4077 16.294 46.2634 16.4205 46.2815 16.2219C46.2815 16.0234 46.3176 15.6265 46.3357 15.3558C46.3537 15.1031 46.2094 14.9768 46.2094 14.9768C45.6318 15.2655 44.0079 15.6445 43.4124 15.6985C42.9794 15.7889 42.8711 16.2038 43.3222 16.3482H43.3403C43.8274 16.4925 44.1522 16.655 44.4048 16.8174C44.5852 16.9617 44.5672 17.1603 44.5672 17.3227C44.5852 18.676 44.5852 20.7511 44.5312 21.888C44.5132 22.3391 44.3869 22.5013 44.062 22.5736L44.098 22.5555C43.8454 22.6097 43.6469 22.6637 43.3401 22.6998C43.2319 22.8081 43.2319 23.3856 43.3401 23.5119C43.5387 23.5119 44.5852 23.4577 45.4515 23.4577C46.6424 23.4577 47.2559 23.5119 47.5627 23.5119C47.689 23.3676 47.7251 22.8261 47.6529 22.6998C47.31 22.6818 47.0574 22.6458 46.8229 22.5736C46.4981 22.5013 46.4077 22.3391 46.3897 21.96C46.3537 21.0036 46.3537 18.9828 46.3537 17.6114C46.3537 17.2323 46.4619 17.0519 46.5702 16.9437C46.9851 16.5829 47.6529 16.3301 48.2483 16.3301C48.8257 16.3301 49.2047 16.5106 49.4934 16.7453C49.8903 17.0699 50.0166 17.5391 50.0708 17.882C50.161 18.6579 50.125 20.1917 50.125 21.527C50.125 22.2487 50.0708 22.4292 49.8002 22.5194C49.6739 22.5736 49.3491 22.6458 48.97 22.6818C48.8438 22.8081 48.8799 23.3676 48.97 23.4938C49.4934 23.4938 50.1069 23.4397 51.0092 23.4397C52.1278 23.4397 52.8497 23.4938 53.1384 23.4938C53.2286 23.3856 53.2647 22.8623 53.1924 22.7179H53.1926ZM58.1909 15.825C57.2345 15.825 56.6391 16.5648 56.6391 17.7196C56.6391 18.8924 57.1623 20.2458 58.642 20.2458C58.8946 20.2458 59.3638 20.1375 59.5802 19.885C59.9231 19.5602 60.1578 18.9105 60.1578 18.2249C60.1578 16.7272 59.4178 15.825 58.1909 15.825ZM58.0645 23.8006C57.7037 23.8006 57.451 23.9088 57.2887 23.9991C56.5307 24.4862 56.188 24.9554 56.188 25.5149C56.188 26.0381 56.3863 26.4531 56.8195 26.814C57.3427 27.2651 58.0645 27.4817 58.9848 27.4817C60.8253 27.4817 61.6374 26.4892 61.6374 25.5149C61.6374 24.8291 61.2945 24.378 60.5908 24.1254C60.0855 23.9088 59.1652 23.8006 58.0645 23.8006ZM58.1909 28.4922C57.0902 28.4922 56.2962 28.2575 55.6106 27.7343C54.9428 27.229 54.6542 26.4711 54.6542 25.9479C54.6542 25.8036 54.6903 25.4065 55.0151 25.0457C55.2135 24.8291 55.6465 24.4141 56.6752 23.7105C56.7112 23.6924 56.7292 23.6743 56.7292 23.6382C56.7292 23.6021 56.6931 23.5659 56.6571 23.548C55.8089 23.2232 55.5564 22.6998 55.4841 22.4112V22.375C55.4662 22.2668 55.4301 22.1586 55.5925 22.0502C55.7188 21.96 55.8993 21.8518 56.0976 21.7255C56.4044 21.5451 56.7292 21.3465 56.9278 21.1841C56.9639 21.148 56.9639 21.112 56.9639 21.0759C56.9639 21.0398 56.9278 21.0036 56.8916 20.9857C55.6286 20.5706 54.997 19.6322 54.997 18.2249C54.997 17.3046 55.412 16.4745 56.1518 15.9513C56.6571 15.5542 57.9201 15.0671 58.7503 15.0671H58.8045C59.6525 15.085 60.1217 15.2655 60.7892 15.5002C61.1502 15.6265 61.493 15.6805 61.9622 15.6805C62.6659 15.6805 62.9726 15.464 63.2252 15.2115C63.2433 15.2474 63.2794 15.3378 63.2975 15.5723C63.3155 15.8069 63.2433 16.1497 63.0628 16.4024C62.9185 16.6008 62.5938 16.7453 62.269 16.7453H62.1787C61.8538 16.7092 61.7095 16.673 61.7095 16.673L61.6374 16.7092C61.6193 16.7453 61.6374 16.7812 61.6555 16.8354L61.6735 16.8716C61.7095 17.034 61.7817 17.521 61.7817 17.6475C61.7817 19.1271 61.1863 19.7766 60.5547 20.2638C59.9412 20.7149 59.2375 21.0036 58.4435 21.0759C58.4254 21.0759 58.3533 21.0759 58.1909 21.094C58.1006 21.094 57.9743 21.112 57.9563 21.112H57.9382C57.7938 21.148 57.4331 21.3285 57.4331 21.6352C57.4331 21.9058 57.5955 22.2307 58.3712 22.2849C58.5337 22.3029 58.6961 22.3029 58.8765 22.321C59.905 22.3931 61.1863 22.4834 61.7817 22.6818C62.6117 22.9885 63.1351 23.7283 63.1351 24.6127C63.1351 25.9479 62.1786 27.193 60.5908 27.9688C59.8149 28.3117 59.039 28.4922 58.1909 28.4922ZM68.4763 15.9152C68.0973 15.9152 67.7544 16.0053 67.5018 16.1858C66.7981 16.6188 66.4372 17.4851 66.4372 18.7481C66.4372 21.112 67.6281 22.7721 69.3243 22.7721C69.8296 22.7721 70.2265 22.6278 70.5694 22.3391C71.0926 21.9058 71.3634 21.0398 71.3634 19.8308C71.3634 17.4851 70.1904 15.9152 68.4763 15.9152ZM68.8011 23.6382C65.7335 23.6382 64.6327 21.3827 64.6327 19.2715C64.6327 17.7918 65.2282 16.655 66.4191 15.8429C67.2673 15.3197 68.2777 15.031 69.18 15.031C71.5257 15.031 73.1678 16.7092 73.1678 19.1271C73.1678 20.7691 72.5182 22.0683 71.2731 22.8623C70.6776 23.2592 69.6491 23.6382 68.8009 23.6382H68.8011ZM36.6458 15.9152C36.2667 15.9152 35.924 16.0053 35.6713 16.1858C34.9676 16.6188 34.6067 17.4851 34.6067 18.7481C34.6067 21.112 35.7976 22.7721 37.4938 22.7721C37.9991 22.7721 38.396 22.6278 38.7389 22.3391C39.2621 21.9058 39.5329 21.0398 39.5329 19.8308C39.5329 17.4851 38.3779 15.9152 36.6458 15.9152ZM36.9706 23.6382C33.903 23.6382 32.8022 21.3827 32.8022 19.2715C32.8022 17.7918 33.3977 16.655 34.5886 15.8429C35.4368 15.3197 36.4472 15.031 37.3494 15.031C39.6953 15.031 41.3373 16.7092 41.3373 19.1271C41.3373 20.7691 40.6877 22.0683 39.4426 22.8623C38.8652 23.2592 37.8367 23.6382 36.9706 23.6382ZM16.3457 23.4577C16.3096 23.4037 16.2735 23.2413 16.2915 23.0427C16.2915 22.8984 16.3276 22.8081 16.3457 22.7721C16.7246 22.7179 16.9231 22.6637 17.1395 22.6097C17.5005 22.5194 17.6448 22.321 17.6629 21.8699C17.7171 20.7872 17.7171 18.73 17.699 17.3046V17.2685C17.699 17.1061 17.699 16.9075 17.5005 16.7632C17.2118 16.5829 16.8689 16.4205 16.4178 16.294C16.2554 16.24 16.1472 16.1497 16.1652 16.0414C16.1652 15.9332 16.2735 15.8069 16.5081 15.7708C17.1036 15.7166 18.6553 15.3378 19.2688 15.0671C19.3049 15.1031 19.3591 15.2115 19.3591 15.3558L19.3411 15.5542C19.323 15.7527 19.3049 15.9874 19.3049 16.2219C19.3049 16.294 19.3772 16.3482 19.4493 16.3482C19.4854 16.3482 19.5215 16.3301 19.5577 16.3121C20.7125 15.4099 21.759 15.085 22.3003 15.085C23.1846 15.085 23.8702 15.5002 24.3936 16.3663C24.4295 16.4205 24.4657 16.4384 24.5199 16.4384C24.556 16.4384 24.61 16.4205 24.6281 16.3843C25.6927 15.5723 26.7573 15.085 27.461 15.085C29.1392 15.085 30.1317 16.3301 30.1317 18.4413C30.1317 19.0368 30.1317 19.8127 30.1136 20.5166C30.1136 21.148 30.0956 21.7255 30.0956 22.1405C30.0956 22.2307 30.2219 22.5194 30.4204 22.5736C30.673 22.6998 31.0159 22.754 31.467 22.8261H31.485C31.5212 22.9524 31.4489 23.4216 31.3768 23.5119C31.2684 23.5119 31.106 23.5119 30.9257 23.4938C30.5828 23.4758 30.0956 23.4577 29.5543 23.4577C28.4355 23.4577 27.8581 23.4758 27.2986 23.5119C27.2626 23.3676 27.2446 22.9345 27.2986 22.8261C27.6234 22.7721 27.7858 22.7179 27.9844 22.6637C28.3453 22.5555 28.4355 22.3931 28.4536 21.9239C28.4536 21.5812 28.5256 18.6579 28.4174 17.9541C28.3092 17.2323 27.7678 16.3843 26.5769 16.3843C26.1258 16.3843 25.4221 16.5648 24.7363 17.088C24.7003 17.1241 24.6642 17.2143 24.6642 17.2685V17.2865C24.7363 17.6654 24.7363 18.0986 24.7363 18.7662V19.939C24.7363 20.7511 24.7182 21.5089 24.7363 22.0863C24.7363 22.4834 24.971 22.5736 25.1695 22.6458C25.2777 22.6637 25.3498 22.6818 25.4401 22.6998C25.6026 22.736 25.765 22.7721 26.0175 22.8261C26.0537 22.8984 26.0537 23.1329 25.9995 23.3314C25.9814 23.4397 25.9453 23.4938 25.9274 23.5119C25.3139 23.4938 24.6823 23.4758 23.762 23.4758C23.4914 23.4758 23.0222 23.4938 22.6251 23.4938C22.3003 23.4938 21.9935 23.5119 21.8132 23.5119C21.7951 23.4758 21.759 23.3495 21.759 23.151C21.759 22.9885 21.7951 22.8623 21.8313 22.8261C21.9214 22.8081 21.9935 22.7902 22.0838 22.7902C22.3003 22.754 22.4808 22.7179 22.6612 22.6818C22.968 22.5916 23.0762 22.4292 23.0943 22.0323C23.1485 21.1301 23.2025 18.5497 23.0762 17.9001C22.8598 16.8535 22.2643 16.3301 21.3079 16.3301C20.7486 16.3301 20.0447 16.6008 19.4673 17.034C19.3772 17.1061 19.3049 17.2865 19.3049 17.449V18.5136C19.3049 19.8127 19.3049 21.4368 19.323 22.1405C19.3411 22.357 19.4131 22.6097 19.8283 22.6998C19.9185 22.7179 20.0628 22.754 20.2433 22.7721L20.5681 22.8261C20.6042 22.9345 20.5862 23.3676 20.5139 23.5119C20.3334 23.5119 20.117 23.4938 19.8643 23.4938C19.4854 23.4758 18.9982 23.4577 18.4569 23.4577C17.8253 23.4577 17.3742 23.4758 17.0133 23.4938C16.7607 23.4577 16.5621 23.4577 16.3457 23.4577Z" fill="white"/>
<path fill-rule="evenodd" clip-rule="evenodd" d="M6.85415 27.7885L6.11435 27.5358C6.11435 27.5358 6.20467 23.7645 4.85134 23.4939C3.94913 22.4473 4.99569 -20.8956 8.24361 23.3495C8.24361 23.3495 7.12495 23.9089 6.92641 24.8653C6.7098 25.8036 6.85415 27.7885 6.85415 27.7885Z" fill="white"/>
<path fill-rule="evenodd" clip-rule="evenodd" d="M6.85415 27.7885L6.11435 27.5358C6.11435 27.5358 6.20467 23.7645 4.85134 23.4939C3.94913 22.4473 4.99569 -20.8956 8.24361 23.3495C8.24361 23.3495 7.12495 23.9089 6.92641 24.8653C6.7098 25.8036 6.85415 27.7885 6.85415 27.7885Z" fill="#A6A385"/>
<path fill-rule="evenodd" clip-rule="evenodd" d="M7.25127 24.1436C7.25127 24.1436 13.7292 19.8851 12.2135 11.0252C10.7519 4.58335 7.30529 2.47216 6.92644 1.66009C6.51146 1.0827 6.11438 0.0722656 6.11438 0.0722656L6.38518 17.9903C6.38518 18.0084 5.82568 23.4759 7.25127 24.1436Z" fill="white"/>
<path fill-rule="evenodd" clip-rule="evenodd" d="M7.25127 24.1436C7.25127 24.1436 13.7292 19.8851 12.2135 11.0252C10.7519 4.58335 7.30529 2.47216 6.92644 1.66009C6.51146 1.0827 6.11438 0.0722656 6.11438 0.0722656L6.38518 17.9903C6.38518 18.0084 5.82568 23.4759 7.25127 24.1436Z" fill="#499D4A"/>
<path fill-rule="evenodd" clip-rule="evenodd" d="M5.73552 24.3781C5.73552 24.3781 -0.345498 20.2278 0.0154559 12.9199C0.358177 5.61184 4.65283 2.02104 5.48278 1.37139C6.02422 0.793998 6.04228 0.577392 6.07841 0C6.45726 0.812063 6.38517 12.144 6.4392 13.4792C6.60161 18.6219 6.1505 23.4038 5.73552 24.3781Z" fill="white"/>
<path fill-rule="evenodd" clip-rule="evenodd" d="M5.73552 24.3781C5.73552 24.3781 -0.345498 20.2278 0.0154559 12.9199C0.358177 5.61184 4.65283 2.02104 5.48278 1.37139C6.02422 0.793998 6.04228 0.577392 6.07841 0C6.45726 0.812063 6.38517 12.144 6.4392 13.4792C6.60161 18.6219 6.1505 23.4038 5.73552 24.3781Z" fill="#58AA50"/>
</svg>
